<?xml version="1.0" encoding="utf-8"?>
<!-- Generator: Adobe Illustrator 24.1.3, SVG Export Plug-In . SVG Version: 6.00 Build 0)  -->
<svg version="1.1" id="Layer_1" xmlns="http://www.w3.org/2000/svg" xmlns:xlink="http://www.w3.org/1999/xlink" x="0px" y="0px"
	 viewBox="0 0 800 800" style="enable-background:new 0 0 800 800;" xml:space="preserve">
<style type="text/css">
	.st0{fill:#968D77;}
	.st1{fill:#909677;}
	.st2{fill:#967D77;}
	.st3{fill:#967781;}
	.st4{fill:#778196;}
	.st5{fill:#779196;}
	.st6{fill:#7D7796;}
</style>
<g>
	<g>
		<path class="st0" d="M510.33,299.44c-12.9,6.67-26.31,4.83-39.89-10.31c-14.06-15.67-11.14-29.18-1.09-38.2
			c10.46-9.39,30.67-16.86,49.77,4.42c13.69,15.25,12.33,28,2.69,36.77l-15.18-16.91c4.29-3.31,6-6.88,2.6-10.66
			c-6.32-7.03-19.42,1.2-24.15,5.45c-4.67,4.19-5.5,8.03-2.52,11.34c2.76,3.07,6.81,4.02,12.96,1.6L510.33,299.44z"/>
		<path class="st0" d="M546.54,368.46c-18.09,6.02-35.77-1.31-43.65-24.98c-7.25-21.78,1.89-32.78,13.95-36.8
			c15.68-5.22,35.47-0.85,43.8,24.17C567.8,352.34,558.45,364.5,546.54,368.46z M523.59,330.48c-4.6,1.53-8.62,4.29-6.91,9.42
			c2.94,8.82,17.58,6.79,24.82,4.38c4.97-1.66,7.76-4.6,6.16-9.42C544.92,326.64,530.3,328.24,523.59,330.48z"/>
		<path class="st0" d="M569.32,390.59l-1.21,23.4l-40.72-10.85l-1.41,27.37l-14.39-6.23l2.5-48.39L569.32,390.59z"/>
		<path class="st0" d="M513.33,505.63c-17.36-7.89-25.33-25.3-15.01-48.01c9.5-20.9,23.69-22.75,35.26-17.49
			c15.04,6.84,26.58,23.51,15.67,47.52C539.88,508.27,524.76,510.82,513.33,505.63z M522.35,462.17c-4.41-2-9.24-2.71-11.47,2.2
			c-3.85,8.46,8.27,16.94,15.22,20.09c4.77,2.17,8.82,1.91,10.92-2.72C540.59,473.87,528.78,465.1,522.35,462.17z"/>
		<path class="st0" d="M478.96,522.31l-10.45-17.48l16.85-15.48l29.18,49.14l-25.1,23.05c-10.24,9.41-19.56,9.23-25.37,2.92
			c-5.37-5.85-5.13-12.98-0.8-19.66c-4.26,1.11-9.64,0.55-14.78-8.22c-1.73-2.94-3.79-6.12-5.79-8.06l16.32-14.99
			c1.92,1.15,4.43,4.35,7.36,9.42c2.83,4.96,4.73,6.55,8.76,2.85L478.96,522.31z M485.47,533.27l-4.74,4.35
			c-3.16,2.9-3.13,6.11-1.03,8.39c1.88,2.05,4.07,2.08,6.41-0.07l4.45-4.08L485.47,533.27z"/>
	</g>
</g>
<g>
	<g>
		<path class="st1" d="M419.31,272.7c-4.5,9.26-12.9,13.88-27.03,11.04c-14.63-2.94-18.69-11.86-16.8-21.24
			c1.97-9.77,10.28-22.57,30.15-18.57c14.24,2.87,18.87,10.69,17.1,19.75l-15.78-3.18c1.03-3.7,0.49-6.45-3.04-7.16
			c-6.57-1.32-10.52,8.91-11.41,13.32c-0.88,4.36,0.28,6.89,3.37,7.51c2.87,0.58,5.58-0.6,8.04-4.58L419.31,272.7z"/>
		<path class="st1" d="M469.12,296.71c-7.75,11.07-20.91,14.37-35.4,4.24c-13.34-9.33-12.78-19.45-7.62-26.83
			c6.71-9.6,19.83-15.48,35.14-4.76C474.4,278.55,474.22,289.42,469.12,296.71z M440,284.8c-1.97,2.81-3.09,6.09,0.05,8.28
			c5.4,3.78,12.87-3.57,15.97-8c2.13-3.05,2.47-5.9-0.48-7.96C450.52,273.6,442.88,280.69,440,284.8z"/>
		<path class="st1" d="M491.47,299.63l9.21,13.82l-27.75,11.06l10.78,16.16l-10.82,2.55l-19.05-28.58L491.47,299.63z"/>
		<path class="st1" d="M508.27,388.78c-13.21,2.85-25.1-3.69-28.83-20.97c-3.43-15.91,3.86-22.95,12.67-24.85
			c11.45-2.47,25.06,2.14,29,20.41C524.49,379.06,516.96,386.9,508.27,388.78z M495.03,360.24c-3.36,0.72-6.4,2.36-5.6,6.1
			c1.39,6.44,11.86,6.14,17.15,5c3.63-0.78,5.82-2.64,5.06-6.16C510.35,359.18,499.93,359.19,495.03,360.24z"/>
		<path class="st1" d="M495.8,412.79l-13.34-5.52l3.03-15.93l37.38,15.59l-4.51,23.73c-1.84,9.68-7.21,13.53-13.19,12.39
			c-5.53-1.05-8.41-5.21-8.77-10.84c-1.95,2.44-5.25,4.39-11.88,1.58c-2.23-0.94-4.74-1.88-6.7-2.13l2.93-15.43
			c1.58-0.16,4.36,0.6,8.17,2.24c3.7,1.62,5.46,1.73,6.19-2.09L495.8,412.79z M504.14,416.26l-0.85,4.48
			c-0.57,2.99,0.81,4.8,2.96,5.21c1.94,0.37,3.2-0.54,3.62-2.75l0.8-4.2L504.14,416.26z"/>
	</g>
</g>
<g>
	<g>
		<path class="st2" d="M601.79,388.99c-20.28-1.16-35.08-12.92-40.66-40.8c-5.77-28.86,7.37-43.04,25.88-46.73
			c19.28-3.85,48.9,1.56,56.73,40.76c5.61,28.1-5.1,42.47-22.94,46.15l-6.22-31.15c7.51-0.94,12.11-4.01,10.72-10.98
			c-2.59-12.96-24.22-12.38-32.93-10.63c-8.6,1.72-12.33,5.75-11.11,11.85c1.13,5.66,5.33,9.69,14.46,11.15L601.79,388.99z"/>
		<path class="st2" d="M596.39,497.8c-26.06-5.57-42.16-26.96-34.87-61.06c6.71-31.38,25.53-38.15,42.91-34.43
			c22.59,4.83,43.33,24.14,35.62,60.2C633.43,493.46,613.55,501.47,596.39,497.8z M595.69,435.76c-6.62-1.42-13.43-0.94-15.01,6.44
			c-2.72,12.71,16.37,20.65,26.79,22.88c7.17,1.53,12.61-0.03,14.1-6.98C624.11,446.26,605.36,437.83,595.69,435.76z"/>
		<path class="st2" d="M608.08,540.71l-18.12,27.3l-41.27-42.06l-21.19,31.92l-12.88-17.75l37.47-56.44L608.08,540.71z"/>
		<path class="st2" d="M458.98,639.34c-15.32-21.81-12.58-48.43,15.95-68.48c26.26-18.45,44.66-10.61,54.88,3.93
			c13.28,18.9,15.36,47.16-14.81,68.36C489.09,661.34,469.06,653.7,458.98,639.34z M500.65,593.37c-3.89-5.54-9.21-9.82-15.38-5.48
			c-10.63,7.47-2.04,26.27,4.09,34.99c4.21,6,9.27,8.55,15.08,4.47C514.34,620.39,506.33,601.46,500.65,593.37z"/>
		<path class="st2" d="M405.73,635.05l-0.13-28.47l31.29-6.63l0.13,79.89l-46.61,9.88c-19.01,4.03-30.11-2.81-32.6-14.55
			c-2.3-10.86,3.07-19.27,13.03-24.22c-5.92-1.7-11.99-6.2-11.93-20.4c0.01-4.77-0.2-10.06-1.23-13.82l30.31-6.42
			c1.49,2.75,2.23,8.38,2.15,16.57c-0.13,7.97,1.02,11.25,8.52,9.66L405.73,635.05z M405.76,652.87l-8.8,1.86
			c-5.87,1.24-8.11,5.12-7.21,9.36c0.81,3.8,3.42,5.41,7.76,4.49l8.26-1.75L405.76,652.87z"/>
	</g>
</g>
<g>
	<g>
		<path class="st3" d="M658.52,529.74c-22.62-11.85-33.53-34.05-25.57-71.51c8.24-38.78,30.58-49.63,53.69-44.72
			c24.06,5.12,55.19,27.03,43.99,79.71c-8.03,37.75-27.7,50.09-50.02,45.5l8.9-41.85c9.09,2.7,15.93,1.25,17.92-8.12
			c3.7-17.41-21.37-27.79-32.24-30.1c-10.74-2.28-17.08,0.8-18.82,9c-1.62,7.61,1.12,14.77,10.82,21.27L658.52,529.74z"/>
		<path class="st3" d="M586.06,657.9c-26.21-20.61-31.47-54.82-2.43-91.75c26.73-33.98,52.22-32.01,69.7-18.27
			c22.71,17.87,34.52,52.08,3.81,91.12C630.78,672.51,603.31,671.47,586.06,657.9z M623.03,583.25c-6.66-5.24-14.68-8.31-20.97-0.31
			c-10.82,13.76,6.02,33.47,16.5,41.72c7.21,5.67,14.34,6.71,20.26-0.81C648.91,611.03,632.75,590.9,623.03,583.25z"/>
		<path class="st3" d="M572.93,713.34l-38.28,21.97l-21.63-70.73l-44.76,25.7l-3.84-27.43l79.15-45.43L572.93,713.34z"/>
		<path class="st3" d="M336.78,745.89c-5.27-32.93,14.07-61.63,60.46-69.06c42.69-6.83,60.08,11.91,63.6,33.86
			c4.57,28.54-9.98,61.68-59.02,69.53C359.72,786.96,340.25,767.56,336.78,745.89z M414.59,716.12
			c-1.34-8.37-5.15-16.06-15.19-14.45c-17.28,2.77-18.29,28.68-16.18,41.85c1.45,9.05,5.98,14.66,15.44,13.15
			C414.76,754.09,416.54,728.33,414.59,716.12z"/>
		<path class="st3" d="M275.54,712.42l15.15-32.36l42.06,9.33l-42.8,90.7l-62.65-13.9c-25.56-5.67-35.53-19.41-32.28-34.06
			c3.01-13.57,14.14-20.21,29.05-20.46c-6.37-5.11-11.41-13.49-3.71-29.57c2.58-5.41,5.16-11.52,5.92-16.33l40.75,9.04
			c0.36,3.92-1.76,10.71-6.27,19.96c-4.44,8.98-4.79,13.31,5.29,15.55L275.54,712.42z M266,732.65l-11.83-2.62
			c-7.89-1.75-12.73,1.45-13.91,6.74c-1.05,4.75,1.3,7.97,7.14,9.27l11.1,2.46L266,732.65z"/>
	</g>
</g>
<g>
	<g>
		<path class="st4" d="M343.35,293.51c0.73,8.52-3.29,15.4-14.58,19.38c-11.68,4.13-18.38-0.5-21.02-8
			c-2.76-7.8-2.27-20.47,13.6-26.08c11.38-4.02,18.01-0.41,20.6,6.81l-12.61,4.45c-0.84-3.08-2.39-4.81-5.21-3.81
			c-5.25,1.85-3.71,10.83-2.47,14.36c1.23,3.48,3.13,4.8,5.6,3.92c2.29-0.81,3.72-2.8,3.79-6.69L343.35,293.51z"/>
		<path class="st4" d="M389.08,289.42c-0.81,11.19-8.79,19.15-23.43,18.09c-13.48-0.97-17.4-8.43-16.86-15.89
			c0.7-9.7,7.55-19.47,23.03-18.36C385.11,274.23,389.61,282.05,389.08,289.42z M363.25,293.33c-0.21,2.85,0.39,5.65,3.56,5.88
			c5.46,0.39,7.66-8.03,7.98-12.51c0.22-3.08-0.75-5.26-3.73-5.47C365.97,280.86,363.54,289.17,363.25,293.33z"/>
		<path class="st4" d="M406.22,281.98l12.46,5.93l-15.08,19.7l14.57,6.93l-6.63,6.42l-25.76-12.26L406.22,281.98z"/>
		<path class="st4" d="M456.18,338.39c-8.21,7.66-19.47,8.06-29.49-2.67c-9.22-9.88-7.02-18.01-1.55-23.12
			c7.11-6.64,18.78-9.15,29.37,2.21C463.6,324.55,461.58,333.35,456.18,338.39z M434.58,323.68c-2.09,1.95-3.56,4.41-1.39,6.73
			c3.73,4,11.08-0.68,14.36-3.74c2.26-2.11,3.03-4.36,0.99-6.55C445.06,316.4,437.62,320.84,434.58,323.68z"/>
		<path class="st4" d="M457.51,360.81l-11.86,1.75l-4.63-12.65l33.3-4.81l6.89,18.84c2.81,7.69,0.62,12.72-4.12,14.46
			c-4.39,1.61-8.21-0.13-10.87-3.99c-0.35,2.57-1.87,5.37-7.79,6.19c-1.99,0.28-4.18,0.68-5.69,1.33l-4.48-12.25
			c1.06-0.79,3.36-1.43,6.78-1.88c3.33-0.42,4.63-1.1,3.52-4.13L457.51,360.81z M464.94,359.74l1.3,3.56
			c0.87,2.37,2.62,3.07,4.33,2.45c1.54-0.56,2.05-1.75,1.41-3.5l-1.22-3.34L464.94,359.74z"/>
	</g>
</g>
<g>
	<g>
		<path class="st5" d="M307.42,337.11c3.66,5.46,3.52,11.57-2.58,18.46c-6.32,7.13-12.54,6.51-17.11,2.45
			c-4.76-4.22-9.15-12.91-0.57-22.6c6.15-6.94,11.95-6.98,16.39-3.1l-6.82,7.69c-1.71-1.76-3.4-2.34-4.92-0.62
			c-2.84,3.2,1.54,8.66,3.69,10.57c2.12,1.88,3.89,2.06,5.23,0.55c1.24-1.4,1.46-3.27,0.05-5.91L307.42,337.11z"/>
		<path class="st5" d="M336.6,317.33c3.63,7.82,1.23,16.15-9,20.9c-9.42,4.37-14.83,0.82-17.25-4.39
			c-3.15-6.78-2.19-15.9,8.63-20.92C328.26,308.6,334.21,312.18,336.6,317.33z M320.69,329.59c0.92,1.99,2.37,3.65,4.59,2.63
			c3.81-1.77,2.15-8.25,0.7-11.38c-1-2.15-2.46-3.25-4.55-2.29C317.88,320.2,319.35,326.69,320.69,329.59z"/>
		<path class="st5" d="M345.33,305.94l10.58-0.66l-2.78,18.86l12.38-0.77l-2.06,6.79l-21.88,1.37L345.33,305.94z"/>
		<path class="st5" d="M399.9,325.2c-2.66,8.21-10.07,12.68-20.81,9.2c-9.88-3.2-11.43-9.48-9.66-14.95
			c2.3-7.11,9.2-13.15,20.55-9.47C399.72,313.14,401.65,319.8,399.9,325.2z M379.91,323.38c-0.67,2.09-0.75,4.29,1.58,5.04
			c4,1.29,7.19-4.58,8.25-7.87c0.73-2.26,0.41-4.06-1.78-4.77C384.23,314.58,380.89,320.34,379.91,323.38z"/>
		<path class="st5" d="M409.14,339.75l-7.31,5.6l-7.83-6.77l20.57-15.66L426.23,333c4.76,4.11,5.17,8.31,2.63,11.25
			c-2.35,2.72-5.57,2.98-8.79,1.38c0.72,1.86,0.75,4.3-2.93,7.07c-1.23,0.93-2.55,2.02-3.32,3.02l-7.59-6.56
			c0.42-0.92,1.72-2.21,3.85-3.8c2.08-1.53,2.7-2.46,0.82-4.09L409.14,339.75z M413.73,336.25l2.2,1.9
			c1.47,1.27,2.91,1.09,3.82,0.03c0.82-0.95,0.73-1.94-0.36-2.88l-2.06-1.79L413.73,336.25z"/>
	</g>
</g>
<g>
	<g>
		<path class="st6" d="M300.86,381.21c4.31,1.48,6.8,4.91,6.32,11.27c-0.5,6.58-4.19,8.85-8.42,8.53
			c-4.4-0.33-10.47-3.29-9.79-12.23c0.49-6.41,3.67-8.87,7.75-8.58l-0.54,7.1c-1.68-0.25-2.86,0.13-2.98,1.72
			c-0.22,2.96,4.48,4.14,6.47,4.29c1.96,0.15,3.01-0.5,3.12-1.89c0.1-1.29-0.57-2.42-2.45-3.28L300.86,381.21z"/>
		<path class="st6" d="M308.7,358.03c5.28,2.8,7.44,8.4,3.78,15.31c-3.37,6.36-7.85,6.67-11.37,4.8c-4.58-2.43-7.87-7.86-4-15.17
			C300.44,356.7,305.22,356.19,308.7,358.03z M305.05,371.46c1.34,0.71,2.84,1.03,3.63-0.47c1.36-2.58-2.27-5.46-4.38-6.58
			c-1.45-0.77-2.72-0.77-3.47,0.64C299.56,367.46,303.09,370.43,305.05,371.46z"/>
		<path class="st6" d="M308.78,348.05l5.57-4.79l6.36,11.58l6.51-5.61l1.7,4.61l-11.51,9.92L308.78,348.05z"/>
		<path class="st6" d="M347.02,335.85c1.96,5.64-0.26,11.22-7.65,13.78c-6.8,2.36-10.28-0.46-11.59-4.22
			c-1.7-4.89-0.41-11.11,7.4-13.83C341.88,329.26,345.73,332.14,347.02,335.85z M335.21,343.21c0.5,1.43,1.38,2.68,2.98,2.13
			c2.75-0.96,2.05-5.54,1.27-7.8c-0.54-1.55-1.47-2.41-2.98-1.89C333.92,336.54,334.48,341.11,335.21,343.21z"/>
		<path class="st6" d="M358.26,340.02l-1.7,6.15l-7.16-0.47l4.83-17.26l10.66,0.7c4.35,0.29,6.33,2.44,6.15,5.12
			c-0.16,2.49-1.83,3.97-4.28,4.44c1.17,0.73,2.21,2.07,1.33,5.13c-0.29,1.03-0.57,2.18-0.57,3.06l-6.94-0.46
			c-0.15-0.68,0.03-1.94,0.54-3.71c0.51-1.71,0.46-2.49-1.25-2.6L358.26,340.02z M359.34,336.17l2.01,0.13
			c1.34,0.09,2.06-0.61,2.13-1.58c0.06-0.87-0.41-1.37-1.4-1.44l-1.89-0.12L359.34,336.17z"/>
	</g>
</g>
</svg>
